
        <svg xmlns="http://www.w3.org/2000/svg" xmlns:xlink="http://www.w3.org/1999/xlink" version="1.1" width="3187.5" 
        height="1124.998490030898" viewBox="0 0 3187.5 1124.998490030898">
			
			<g transform="scale(9.375) translate(10, 10)">
				<defs id="SvgjsDefs4100"></defs><g id="SvgjsG4101" featureKey="symbolFeature-0" transform="matrix(1.1110999584197998,0,0,1.1110999584197998,35.44450048696238,-5.556614241104576)" fill="#ffffff"><polygon xmlns="http://www.w3.org/2000/svg" points="55.928,29.767 39.385,23.15 32.856,25.761 49.396,32.379 "></polygon><polygon xmlns="http://www.w3.org/2000/svg" points="28.729,27.411 22.84,29.767 39.385,36.385 45.271,34.029 "></polygon><polygon xmlns="http://www.w3.org/2000/svg" points="22.192,48.938 38.903,55.621 38.903,37.229 22.192,30.544 "></polygon><polygon xmlns="http://www.w3.org/2000/svg" points="50.044,38.348 49.355,37.935 48.668,38.896 47.98,38.483 47.292,39.447 46.605,39.035 45.917,39.998 45.917,34.808   39.866,37.229 39.866,55.621 56.576,48.938 56.576,30.544 50.044,33.157 "></polygon><path xmlns="http://www.w3.org/2000/svg" d="M93.244,82.152L67.066,59.717c4.192-5.697,6.701-12.715,6.701-20.331c0-18.992-15.395-34.385-34.384-34.385  C20.394,5.001,5,20.394,5,39.386C5,58.373,20.394,73.77,39.385,73.77c7.618,0,14.633-2.509,20.333-6.701l22.437,26.176  c1.91,2.229,5.142,2.354,7.217,0.277l4.15-4.152C95.598,87.294,95.473,84.063,93.244,82.152z M39.385,66.893  c-15.168,0-27.508-12.34-27.508-27.507c0-15.168,12.34-27.508,27.508-27.508c15.167,0,27.508,12.34,27.508,27.508  C66.893,54.553,54.552,66.893,39.385,66.893z"></path></g><g id="SvgjsG4102" featureKey="nameFeature-0" transform="matrix(0.7021682858467102,0,0,0.7021682858467102,119.35400444640872,31.7986761219816)" fill="#ffffff"><path d="M1.04 18.72 c0 -4.48 2.2 -7.04 6.48 -7.04 s6.48 2.56 6.48 7.04 l0 0.88 l-4.16 0 l0 -1.16 c0 -2 -0.8 -2.76 -2.2 -2.76 s-2.2 0.76 -2.2 2.76 c0 2.04 0.88 3.56 3.76 6.08 c3.68 3.24 4.84 5.56 4.84 8.76 c0 4.48 -2.24 7.04 -6.56 7.04 s-6.56 -2.56 -6.56 -7.04 l0 -1.72 l4.16 0 l0 2 c0 2 0.88 2.72 2.28 2.72 s2.28 -0.72 2.28 -2.72 c0 -2.04 -0.88 -3.56 -3.76 -6.08 c-3.68 -3.24 -4.84 -5.56 -4.84 -8.76 z M20.688 12 l4.4 0 l0 21.6 c0 2 0.88 2.72 2.28 2.72 s2.28 -0.72 2.28 -2.72 l0 -21.6 l4.16 0 l0 21.32 c0 4.48 -2.24 7.04 -6.56 7.04 s-6.56 -2.56 -6.56 -7.04 l0 -21.32 z M47.616 12 c4.4 0 6.56 2.44 6.56 6.92 l0 3.64 c0 4.48 -2.16 6.92 -6.56 6.92 l-2.08 0 l0 10.52 l-4.4 0 l0 -28 l6.48 0 z M47.616 16 l-2.08 0 l0 9.48 l2.08 0 c1.4 0 2.16 -0.64 2.16 -2.64 l0 -4.2 c0 -2 -0.76 -2.64 -2.16 -2.64 z M67.024 12 c4.4 0 6.56 2.44 6.56 6.92 l0 3.64 c0 4.48 -2.16 6.92 -6.56 6.92 l-2.08 0 l0 10.52 l-4.4 0 l0 -28 l6.48 0 z M67.024 16 l-2.08 0 l0 9.48 l2.08 0 c1.4 0 2.16 -0.64 2.16 -2.64 l0 -4.2 c0 -2 -0.76 -2.64 -2.16 -2.64 z M79.952 40 l0 -28 l4.4 0 l0 24 l7.24 0 l0 4 l-11.64 0 z M99.48 40 l0 -9.28 l-5.56 -18.72 l4.6 0 l3.32 12.76 l0.08 0 l3.32 -12.76 l4.2 0 l-5.56 18.72 l0 9.28 l-4.4 0 z M114.24799999999999 16 l0 -4 l13.6 0 l0 4 l-4.6 0 l0 24 l-4.4 0 l0 -24 l-4.6 0 z M147.776 40 l-4.48 0 c-0.24 -0.72 -0.4 -1.16 -0.4 -3.44 l0 -4.4 c0 -2.6 -0.88 -3.56 -2.88 -3.56 l-1.52 0 l0 11.4 l-4.4 0 l0 -28 l6.64 0 c4.56 0 6.52 2.12 6.52 6.44 l0 2.2 c0 2.88 -0.92 4.72 -2.88 5.64 l0 0.08 c2.2 0.92 2.92 3 2.92 5.92 l0 4.32 c0 1.36 0.04 2.36 0.48 3.4 z M140.616 16 l-2.12 0 l0 8.6 l1.72 0 c1.64 0 2.64 -0.72 2.64 -2.96 l0 -2.76 c0 -2 -0.68 -2.88 -2.24 -2.88 z M164.264 12 l4.48 28 l-4.44 0 l-0.76 -5.08 l-5.4 0 l-0.76 5.08 l-4.04 0 l4.48 -28 l6.44 0 z M160.784 16.96 l-2.08 14.16 l4.24 0 l-2.08 -14.16 l-0.08 0 z M183.712 29.560000000000002 l4.16 0 l0 3.72 c0 4.48 -2.24 7.04 -6.56 7.04 s-6.56 -2.56 -6.56 -7.04 l0 -14.56 c0 -4.48 2.24 -7.04 6.56 -7.04 s6.56 2.56 6.56 7.04 l0 2.72 l-4.16 0 l0 -3 c0 -2 -0.88 -2.76 -2.28 -2.76 s-2.28 0.76 -2.28 2.76 l0 15.12 c0 2 0.88 2.72 2.28 2.72 s2.28 -0.72 2.28 -2.72 l0 -4 z M204.92000000000002 40 l-4.28 -11.16 l-1.36 2.56 l0 8.6 l-4.4 0 l0 -28 l4.4 0 l0 12.12 l0.08 0 l5.68 -12.12 l4.4 0 l-6.12 12.48 l6.12 15.52 l-4.52 0 z M222.24800000000002 12 c4.4 0 6.56 2.44 6.56 6.92 l0 3.64 c0 4.48 -2.16 6.92 -6.56 6.92 l-2.08 0 l0 10.52 l-4.4 0 l0 -28 l6.48 0 z M222.24800000000002 16 l-2.08 0 l0 9.48 l2.08 0 c1.4 0 2.16 -0.64 2.16 -2.64 l0 -4.2 c0 -2 -0.76 -2.64 -2.16 -2.64 z M235.17600000000002 40 l0 -28 l4.4 0 l0 24 l7.24 0 l0 4 l-11.64 0 z M252.86400000000003 12 l4.4 0 l0 21.6 c0 2 0.88 2.72 2.28 2.72 s2.28 -0.72 2.28 -2.72 l0 -21.6 l4.16 0 l0 21.32 c0 4.48 -2.24 7.04 -6.56 7.04 s-6.56 -2.56 -6.56 -7.04 l0 -21.32 z M272.75200000000007 18.72 c0 -4.48 2.2 -7.04 6.48 -7.04 s6.48 2.56 6.48 7.04 l0 0.88 l-4.16 0 l0 -1.16 c0 -2 -0.8 -2.76 -2.2 -2.76 s-2.2 0.76 -2.2 2.76 c0 2.04 0.88 3.56 3.76 6.08 c3.68 3.24 4.84 5.56 4.84 8.76 c0 4.48 -2.24 7.04 -6.56 7.04 s-6.56 -2.56 -6.56 -7.04 l0 -1.72 l4.16 0 l0 2 c0 2 0.88 2.72 2.28 2.72 s2.28 -0.72 2.28 -2.72 c0 -2.04 -0.88 -3.56 -3.76 -6.08 c-3.68 -3.24 -4.84 -5.56 -4.84 -8.76 z"></path></g>
			</g>
		</svg>
	